<svg xmlns="http://www.w3.org/2000/svg" viewBox="0 0 64 64" fill="none">
  <rect width="64" height="64" rx="12" fill="#4285F4" opacity="0.12"/>
  <path d="M32 26v8.8h12.2c-.5 2.8-2 5.2-4.2 6.8l6.8 5.2c4-3.6 6.2-9 6.2-15.4 0-1.4-.1-2.8-.4-4.2H32z" fill="#4285F4"/>
  <path d="M20.2 37.2l-1.6 1.2-5.6 4.4c3.6 7 10.8 11.8 19 11.8 5.8 0 10.6-1.9 14.2-5.2l-6.8-5.2c-1.9 1.3-4.4 2-7.4 2-5.6 0-10.4-3.8-12.2-9l.4.2z" fill="#34A853"/>
  <path d="M13 25.4c-1.2 2.4-1.8 5-1.8 7.8s.6 5.4 1.8 7.8l7.2-5.6C19.6 34 19.2 33 19.2 32s.4-2 1-3l-7.2-3.6z" fill="#FBBC05"/>
  <path d="M32 19.2c3.2 0 6 1.1 8.2 3.2l6.2-6.2C42.6 12.6 37.8 10.6 32 10.6c-8.2 0-15.4 4.8-19 11.8l7.2 5.6c1.8-5.2 6.6-8.8 12.2-8.8z" fill="#EA4335"/>
</svg>